<?xml version="1.0" encoding="utf-8"?>
<svg viewBox="-0.322 -0.448 546.771 112.5" xmlns="http://www.w3.org/2000/svg">
  <path id="path4282-2" style="color:#000000;clip-rule:nonzero;display:inline;overflow:visible;visibility:visible;opacity:1;isolation:auto;mix-blend-mode:normal;color-interpolation:sRGB;color-interpolation-filters:linearRGB;solid-color:#000000;solid-opacity:1;fill:#0000ff;fill-opacity:1;fill-rule:nonzero;stroke:none;stroke-width:282.69;stroke-linecap:butt;stroke-linejoin:round;stroke-miterlimit:4;stroke-dasharray:none;stroke-dashoffset:0;stroke-opacity:1;color-rendering:auto;image-rendering:auto;shape-rendering:auto;text-rendering:auto;enable-background:accumulate" d="M 77.224 2.066 L 55.388 33.012 L 65.519 47.368 L 97.46 2.066 L 77.224 2.066 Z M 35.125 61.751 L 34.517 62.634 L -0.322 112.05 L 19.913 112.05 L 45.256 76.134 L 35.125 61.751 Z M 341.722 2.066 L 341.722 15.041 L 341.722 72.6 L 341.722 85.575 L 358.258 85.575 L 358.258 72.6 L 358.258 15.041 L 358.258 2.066 L 341.722 2.066 Z M 117.281 2.066 L 117.281 15.041 L 117.281 72.6 L 117.281 85.575 L 133.818 85.575 L 133.818 72.6 L 133.818 15.041 L 133.818 2.066 L 117.281 2.066 Z M 429.51 -0.447 C 406.351 -0.445 387.577 18.329 387.576 41.488 L 387.576 86.652 L 387.492 86.652 C 387.482 91.507 383.541 95.436 378.686 95.431 L 378.686 95.515 L 323.86 95.515 L 322.341 95.515 L 322.341 95.487 C 317.456 95.492 313.49 91.539 313.48 86.653 L 313.451 86.653 L 313.451 41.517 C 313.45 18.358 294.676 -0.416 271.517 -0.417 C 258.231 -0.404 245.736 5.904 237.837 16.588 C 229.938 5.904 217.444 -0.404 204.157 -0.417 C 180.988 -0.431 162.197 18.347 162.196 41.517 L 162.196 86.653 L 162.167 86.653 C 162.157 91.539 158.191 95.492 153.306 95.487 L 153.306 95.515 L 151.815 95.515 L 93.621 95.515 L 93.621 95.487 C 90.743 95.486 88.045 94.085 86.388 91.733 L 58.561 52.283 L 41.196 27.686 L 23.114 2.067 L 2.878 2.067 L 28.166 37.928 L 41.196 56.424 L 41.196 56.368 L 45.033 61.806 L 72.861 101.283 C 72.916 101.357 72.971 101.431 73.026 101.504 L 73.385 102 C 73.494 102.148 73.605 102.295 73.717 102.441 C 73.915 102.665 74.118 102.886 74.324 103.104 C 74.442 103.243 74.562 103.381 74.683 103.518 C 75.038 103.934 75.406 104.339 75.787 104.732 C 76.093 105.025 76.406 105.31 76.726 105.587 C 77.032 105.861 77.345 106.128 77.664 106.387 C 78.025 106.673 78.393 106.949 78.769 107.215 C 79.077 107.444 79.39 107.665 79.707 107.878 C 80.141 108.158 80.583 108.425 81.033 108.678 C 81.252 108.801 81.472 108.921 81.695 109.037 C 82.264 109.335 82.844 109.612 83.434 109.866 C 83.654 109.97 83.874 110.071 84.097 110.17 C 84.525 110.338 84.958 110.494 85.394 110.639 C 85.85 110.799 86.31 110.946 86.775 111.08 C 87.086 111.169 87.399 111.252 87.713 111.329 C 88.189 111.444 88.668 111.545 89.149 111.633 C 89.68 111.723 90.214 111.797 90.75 111.853 C 90.86 111.873 90.971 111.891 91.081 111.91 C 91.146 111.91 91.21 111.91 91.275 111.91 C 92.054 111.993 92.837 112.04 93.621 112.051 L 96.188 112.051 L 151.815 112.051 L 153.306 112.051 C 167.341 112.059 178.725 100.688 178.732 86.653 L 178.732 41.516 C 178.738 27.481 190.122 16.11 204.157 16.119 C 218.181 16.125 229.548 27.492 229.555 41.516 L 229.555 112.051 L 246.091 112.051 L 246.091 41.516 C 246.098 27.481 257.482 16.11 271.517 16.119 C 285.541 16.125 296.908 27.492 296.915 41.516 L 296.915 86.653 C 296.917 99.994 307.237 111.062 320.546 111.996 C 321.143 112.036 321.742 112.054 322.34 112.052 L 323.859 112.052 L 378.685 112.052 C 379.533 112.047 380.381 112 381.225 111.911 C 382.91 111.746 384.575 111.413 386.194 110.917 C 389.441 109.915 392.455 108.273 395.056 106.086 C 396.352 104.992 397.536 103.771 398.589 102.442 C 400.171 100.453 401.446 98.239 402.371 95.872 C 402.371 95.862 402.371 95.853 402.371 95.843 C 402.678 95.057 402.945 94.255 403.172 93.442 C 403.79 91.231 404.106 88.946 404.111 86.65 L 404.111 41.486 C 404.117 27.462 415.484 16.095 429.509 16.088 L 433.981 16.088 L 433.981 16.117 L 504.515 16.117 C 518.539 16.123 529.906 27.491 529.913 41.515 L 529.913 95.513 L 487.565 95.513 C 487.555 95.513 487.546 95.513 487.537 95.513 C 477.191 95.507 468.81 87.114 468.819 76.768 C 468.825 66.433 477.202 58.057 487.537 58.051 C 487.546 58.051 487.555 58.051 487.565 58.051 L 514.454 58.051 L 514.454 41.515 L 487.565 41.515 C 487.555 41.515 487.546 41.515 487.537 41.515 C 468.069 41.521 452.29 57.301 452.283 76.768 C 452.275 96.246 468.059 112.042 487.537 112.049 C 487.546 112.049 487.555 112.049 487.565 112.049 L 529.913 112.049 L 545.594 112.049 L 546.449 112.049 L 546.449 41.515 C 546.448 18.356 527.674 -0.418 504.515 -0.419 L 500.043 -0.419 L 500.043 -0.448 L 429.509 -0.448 L 429.51 -0.447 Z"/>
</svg>